<mxfile host="app.diagrams.net" modified="2022-04-14T01:14:38.994Z" agent="5.0 (Windows NT 6.1; Win64; x64) AppleWebKit/537.36 (KHTML, like Gecko) Chrome/100.0.4896.75 Safari/537.36" etag="wiTwSXMmwGYmKxW5-kv8" version="17.4.0" type="github">
  <diagram id="17nobbx37QiBZ-G4ytO7" name="Page-1">
    <mxGraphModel dx="1231" dy="743" grid="1" gridSize="10" guides="1" tooltips="1" connect="1" arrows="1" fold="1" page="1" pageScale="1" pageWidth="827" pageHeight="1169" math="0" shadow="0">
      <root>
        <mxCell id="0" />
        <mxCell id="1" parent="0" />
        <mxCell id="-EyaEsuJnF6qJAcYI2HZ-1" value="Karyawan" style="shape=table;startSize=30;container=1;collapsible=1;childLayout=tableLayout;fixedRows=1;rowLines=0;fontStyle=1;align=center;resizeLast=1;" vertex="1" parent="1">
          <mxGeometry x="90" y="60" width="260" height="310" as="geometry" />
        </mxCell>
        <mxCell id="-EyaEsuJnF6qJAcYI2HZ-2" value="" style="shape=tableRow;horizontal=0;startSize=0;swimlaneHead=0;swimlaneBody=0;fillColor=none;collapsible=0;dropTarget=0;points=[[0,0.5],[1,0.5]];portConstraint=eastwest;top=0;left=0;right=0;bottom=1;" vertex="1" parent="-EyaEsuJnF6qJAcYI2HZ-1">
          <mxGeometry y="30" width="260" height="30" as="geometry" />
        </mxCell>
        <mxCell id="-EyaEsuJnF6qJAcYI2HZ-3" value="PK" style="shape=partialRectangle;connectable=0;fillColor=none;top=0;left=0;bottom=0;right=0;fontStyle=1;overflow=hidden;" vertex="1" parent="-EyaEsuJnF6qJAcYI2HZ-2">
          <mxGeometry width="30" height="30" as="geometry">
            <mxRectangle width="30" height="30" as="alternateBounds" />
          </mxGeometry>
        </mxCell>
        <mxCell id="-EyaEsuJnF6qJAcYI2HZ-4" value="id_karyawan int NOT NULL" style="shape=partialRectangle;connectable=0;fillColor=none;top=0;left=0;bottom=0;right=0;align=left;spacingLeft=6;fontStyle=5;overflow=hidden;" vertex="1" parent="-EyaEsuJnF6qJAcYI2HZ-2">
          <mxGeometry x="30" width="230" height="30" as="geometry">
            <mxRectangle width="230" height="30" as="alternateBounds" />
          </mxGeometry>
        </mxCell>
        <mxCell id="-EyaEsuJnF6qJAcYI2HZ-5" value="" style="shape=tableRow;horizontal=0;startSize=0;swimlaneHead=0;swimlaneBody=0;fillColor=none;collapsible=0;dropTarget=0;points=[[0,0.5],[1,0.5]];portConstraint=eastwest;top=0;left=0;right=0;bottom=0;" vertex="1" parent="-EyaEsuJnF6qJAcYI2HZ-1">
          <mxGeometry y="60" width="260" height="250" as="geometry" />
        </mxCell>
        <mxCell id="-EyaEsuJnF6qJAcYI2HZ-6" value="" style="shape=partialRectangle;connectable=0;fillColor=none;top=0;left=0;bottom=0;right=0;editable=1;overflow=hidden;" vertex="1" parent="-EyaEsuJnF6qJAcYI2HZ-5">
          <mxGeometry width="30" height="250" as="geometry">
            <mxRectangle width="30" height="250" as="alternateBounds" />
          </mxGeometry>
        </mxCell>
        <mxCell id="-EyaEsuJnF6qJAcYI2HZ-7" value="no_hp char (20) NOT NULL&#xa;&#xa;nama_karyawan char (50) NOT NULL&#xa;&#xa;email char (50) NOT NULL&#xa;&#xa;jenis_kelamin enum NOT NULL&#xa;&#xa;umur int NOT NULL&#xa;&#xa;lama_bekerja int NOT NULL&#xa;&#xa;id_gaji int NOT NULL&#xa;&#xa;id_karyawan int NOT NULL&#xa;&#xa;id_tempat_tinggal int NOT NULL" style="shape=partialRectangle;connectable=0;fillColor=none;top=0;left=0;bottom=0;right=0;align=left;spacingLeft=6;overflow=hidden;fontStyle=0" vertex="1" parent="-EyaEsuJnF6qJAcYI2HZ-5">
          <mxGeometry x="30" width="230" height="250" as="geometry">
            <mxRectangle width="230" height="250" as="alternateBounds" />
          </mxGeometry>
        </mxCell>
        <mxCell id="-EyaEsuJnF6qJAcYI2HZ-14" value="Gaji" style="shape=table;startSize=30;container=1;collapsible=1;childLayout=tableLayout;fixedRows=1;rowLines=0;fontStyle=1;align=center;resizeLast=1;" vertex="1" parent="1">
          <mxGeometry x="450" y="40" width="260" height="220" as="geometry" />
        </mxCell>
        <mxCell id="-EyaEsuJnF6qJAcYI2HZ-15" value="" style="shape=tableRow;horizontal=0;startSize=0;swimlaneHead=0;swimlaneBody=0;fillColor=none;collapsible=0;dropTarget=0;points=[[0,0.5],[1,0.5]];portConstraint=eastwest;top=0;left=0;right=0;bottom=1;" vertex="1" parent="-EyaEsuJnF6qJAcYI2HZ-14">
          <mxGeometry y="30" width="260" height="30" as="geometry" />
        </mxCell>
        <mxCell id="-EyaEsuJnF6qJAcYI2HZ-16" value="PK" style="shape=partialRectangle;connectable=0;fillColor=none;top=0;left=0;bottom=0;right=0;fontStyle=1;overflow=hidden;" vertex="1" parent="-EyaEsuJnF6qJAcYI2HZ-15">
          <mxGeometry width="30" height="30" as="geometry">
            <mxRectangle width="30" height="30" as="alternateBounds" />
          </mxGeometry>
        </mxCell>
        <mxCell id="-EyaEsuJnF6qJAcYI2HZ-17" value="id_gaji int NOT NULL" style="shape=partialRectangle;connectable=0;fillColor=none;top=0;left=0;bottom=0;right=0;align=left;spacingLeft=6;fontStyle=5;overflow=hidden;" vertex="1" parent="-EyaEsuJnF6qJAcYI2HZ-15">
          <mxGeometry x="30" width="230" height="30" as="geometry">
            <mxRectangle width="230" height="30" as="alternateBounds" />
          </mxGeometry>
        </mxCell>
        <mxCell id="-EyaEsuJnF6qJAcYI2HZ-18" value="" style="shape=tableRow;horizontal=0;startSize=0;swimlaneHead=0;swimlaneBody=0;fillColor=none;collapsible=0;dropTarget=0;points=[[0,0.5],[1,0.5]];portConstraint=eastwest;top=0;left=0;right=0;bottom=0;" vertex="1" parent="-EyaEsuJnF6qJAcYI2HZ-14">
          <mxGeometry y="60" width="260" height="160" as="geometry" />
        </mxCell>
        <mxCell id="-EyaEsuJnF6qJAcYI2HZ-19" value="" style="shape=partialRectangle;connectable=0;fillColor=none;top=0;left=0;bottom=0;right=0;editable=1;overflow=hidden;" vertex="1" parent="-EyaEsuJnF6qJAcYI2HZ-18">
          <mxGeometry width="30" height="160" as="geometry">
            <mxRectangle width="30" height="160" as="alternateBounds" />
          </mxGeometry>
        </mxCell>
        <mxCell id="-EyaEsuJnF6qJAcYI2HZ-20" value="jumlah_gaji int NOT NULL&#xa;&#xa;jumlah_tambahan int NOT NULL&#xa;&#xa;jenis_tambahan int NOT NULL&#xa;&#xa;id_tempat_tinggal int NOT NULL&#xa;&#xa;id_jabatan int NOT NULL" style="shape=partialRectangle;connectable=0;fillColor=none;top=0;left=0;bottom=0;right=0;align=left;spacingLeft=6;overflow=hidden;fontStyle=0" vertex="1" parent="-EyaEsuJnF6qJAcYI2HZ-18">
          <mxGeometry x="30" width="230" height="160" as="geometry">
            <mxRectangle width="230" height="160" as="alternateBounds" />
          </mxGeometry>
        </mxCell>
        <mxCell id="-EyaEsuJnF6qJAcYI2HZ-21" value="Jabatan" style="shape=table;startSize=30;container=1;collapsible=1;childLayout=tableLayout;fixedRows=1;rowLines=0;fontStyle=1;align=center;resizeLast=1;" vertex="1" parent="1">
          <mxGeometry x="450" y="300" width="260" height="160" as="geometry" />
        </mxCell>
        <mxCell id="-EyaEsuJnF6qJAcYI2HZ-22" value="" style="shape=tableRow;horizontal=0;startSize=0;swimlaneHead=0;swimlaneBody=0;fillColor=none;collapsible=0;dropTarget=0;points=[[0,0.5],[1,0.5]];portConstraint=eastwest;top=0;left=0;right=0;bottom=1;" vertex="1" parent="-EyaEsuJnF6qJAcYI2HZ-21">
          <mxGeometry y="30" width="260" height="30" as="geometry" />
        </mxCell>
        <mxCell id="-EyaEsuJnF6qJAcYI2HZ-23" value="PK" style="shape=partialRectangle;connectable=0;fillColor=none;top=0;left=0;bottom=0;right=0;fontStyle=1;overflow=hidden;" vertex="1" parent="-EyaEsuJnF6qJAcYI2HZ-22">
          <mxGeometry width="30" height="30" as="geometry">
            <mxRectangle width="30" height="30" as="alternateBounds" />
          </mxGeometry>
        </mxCell>
        <mxCell id="-EyaEsuJnF6qJAcYI2HZ-24" value="id_jabatan int NOT NULL" style="shape=partialRectangle;connectable=0;fillColor=none;top=0;left=0;bottom=0;right=0;align=left;spacingLeft=6;fontStyle=5;overflow=hidden;" vertex="1" parent="-EyaEsuJnF6qJAcYI2HZ-22">
          <mxGeometry x="30" width="230" height="30" as="geometry">
            <mxRectangle width="230" height="30" as="alternateBounds" />
          </mxGeometry>
        </mxCell>
        <mxCell id="-EyaEsuJnF6qJAcYI2HZ-25" value="" style="shape=tableRow;horizontal=0;startSize=0;swimlaneHead=0;swimlaneBody=0;fillColor=none;collapsible=0;dropTarget=0;points=[[0,0.5],[1,0.5]];portConstraint=eastwest;top=0;left=0;right=0;bottom=0;" vertex="1" parent="-EyaEsuJnF6qJAcYI2HZ-21">
          <mxGeometry y="60" width="260" height="100" as="geometry" />
        </mxCell>
        <mxCell id="-EyaEsuJnF6qJAcYI2HZ-26" value="" style="shape=partialRectangle;connectable=0;fillColor=none;top=0;left=0;bottom=0;right=0;editable=1;overflow=hidden;" vertex="1" parent="-EyaEsuJnF6qJAcYI2HZ-25">
          <mxGeometry width="30" height="100" as="geometry">
            <mxRectangle width="30" height="100" as="alternateBounds" />
          </mxGeometry>
        </mxCell>
        <mxCell id="-EyaEsuJnF6qJAcYI2HZ-27" value="divisi enum NOT NULL&#xa;&#xa;level enum NOT NULL&#xa;&#xa;nama_jabatan char(20) NOT NULL" style="shape=partialRectangle;connectable=0;fillColor=none;top=0;left=0;bottom=0;right=0;align=left;spacingLeft=6;overflow=hidden;" vertex="1" parent="-EyaEsuJnF6qJAcYI2HZ-25">
          <mxGeometry x="30" width="230" height="100" as="geometry">
            <mxRectangle width="230" height="100" as="alternateBounds" />
          </mxGeometry>
        </mxCell>
        <mxCell id="-EyaEsuJnF6qJAcYI2HZ-28" value="Tempat Tinggal" style="shape=table;startSize=30;container=1;collapsible=1;childLayout=tableLayout;fixedRows=1;rowLines=0;fontStyle=1;align=center;resizeLast=1;" vertex="1" parent="1">
          <mxGeometry x="450" y="505" width="260" height="160" as="geometry" />
        </mxCell>
        <mxCell id="-EyaEsuJnF6qJAcYI2HZ-29" value="" style="shape=tableRow;horizontal=0;startSize=0;swimlaneHead=0;swimlaneBody=0;fillColor=none;collapsible=0;dropTarget=0;points=[[0,0.5],[1,0.5]];portConstraint=eastwest;top=0;left=0;right=0;bottom=1;" vertex="1" parent="-EyaEsuJnF6qJAcYI2HZ-28">
          <mxGeometry y="30" width="260" height="30" as="geometry" />
        </mxCell>
        <mxCell id="-EyaEsuJnF6qJAcYI2HZ-30" value="PK" style="shape=partialRectangle;connectable=0;fillColor=none;top=0;left=0;bottom=0;right=0;fontStyle=1;overflow=hidden;" vertex="1" parent="-EyaEsuJnF6qJAcYI2HZ-29">
          <mxGeometry width="30" height="30" as="geometry">
            <mxRectangle width="30" height="30" as="alternateBounds" />
          </mxGeometry>
        </mxCell>
        <mxCell id="-EyaEsuJnF6qJAcYI2HZ-31" value="id_tempat_tinggal int NOT NULL" style="shape=partialRectangle;connectable=0;fillColor=none;top=0;left=0;bottom=0;right=0;align=left;spacingLeft=6;fontStyle=5;overflow=hidden;" vertex="1" parent="-EyaEsuJnF6qJAcYI2HZ-29">
          <mxGeometry x="30" width="230" height="30" as="geometry">
            <mxRectangle width="230" height="30" as="alternateBounds" />
          </mxGeometry>
        </mxCell>
        <mxCell id="-EyaEsuJnF6qJAcYI2HZ-32" value="" style="shape=tableRow;horizontal=0;startSize=0;swimlaneHead=0;swimlaneBody=0;fillColor=none;collapsible=0;dropTarget=0;points=[[0,0.5],[1,0.5]];portConstraint=eastwest;top=0;left=0;right=0;bottom=0;" vertex="1" parent="-EyaEsuJnF6qJAcYI2HZ-28">
          <mxGeometry y="60" width="260" height="100" as="geometry" />
        </mxCell>
        <mxCell id="-EyaEsuJnF6qJAcYI2HZ-33" value="" style="shape=partialRectangle;connectable=0;fillColor=none;top=0;left=0;bottom=0;right=0;editable=1;overflow=hidden;" vertex="1" parent="-EyaEsuJnF6qJAcYI2HZ-32">
          <mxGeometry width="30" height="100" as="geometry">
            <mxRectangle width="30" height="100" as="alternateBounds" />
          </mxGeometry>
        </mxCell>
        <mxCell id="-EyaEsuJnF6qJAcYI2HZ-34" value="alamat char(40) NOT NULL&#xa;&#xa;jarak double NOT NULL&#xa;&#xa;kategori enum NOT NULL" style="shape=partialRectangle;connectable=0;fillColor=none;top=0;left=0;bottom=0;right=0;align=left;spacingLeft=6;overflow=hidden;" vertex="1" parent="-EyaEsuJnF6qJAcYI2HZ-32">
          <mxGeometry x="30" width="230" height="100" as="geometry">
            <mxRectangle width="230" height="100" as="alternateBounds" />
          </mxGeometry>
        </mxCell>
        <mxCell id="-EyaEsuJnF6qJAcYI2HZ-38" value="" style="edgeStyle=entityRelationEdgeStyle;fontSize=12;html=1;endArrow=ERzeroToMany;startArrow=ERmandOne;rounded=0;" edge="1" parent="1" source="-EyaEsuJnF6qJAcYI2HZ-5">
          <mxGeometry width="100" height="100" relative="1" as="geometry">
            <mxPoint x="350" y="280" as="sourcePoint" />
            <mxPoint x="450" y="180" as="targetPoint" />
          </mxGeometry>
        </mxCell>
        <mxCell id="-EyaEsuJnF6qJAcYI2HZ-39" value="" style="edgeStyle=entityRelationEdgeStyle;fontSize=12;html=1;endArrow=ERmandOne;startArrow=ERmandOne;rounded=0;entryX=0;entryY=0.5;entryDx=0;entryDy=0;exitX=1;exitY=0.664;exitDx=0;exitDy=0;exitPerimeter=0;" edge="1" parent="1" source="-EyaEsuJnF6qJAcYI2HZ-5" target="-EyaEsuJnF6qJAcYI2HZ-25">
          <mxGeometry width="100" height="100" relative="1" as="geometry">
            <mxPoint x="360" y="340" as="sourcePoint" />
            <mxPoint x="460" y="240" as="targetPoint" />
          </mxGeometry>
        </mxCell>
        <mxCell id="-EyaEsuJnF6qJAcYI2HZ-40" value="" style="edgeStyle=entityRelationEdgeStyle;fontSize=12;html=1;endArrow=ERzeroToMany;startArrow=ERmandOne;rounded=0;exitX=1.004;exitY=0.856;exitDx=0;exitDy=0;exitPerimeter=0;entryX=-0.004;entryY=0.37;entryDx=0;entryDy=0;entryPerimeter=0;" edge="1" parent="1" source="-EyaEsuJnF6qJAcYI2HZ-5" target="-EyaEsuJnF6qJAcYI2HZ-32">
          <mxGeometry width="100" height="100" relative="1" as="geometry">
            <mxPoint x="480" y="490" as="sourcePoint" />
            <mxPoint x="580" y="390" as="targetPoint" />
          </mxGeometry>
        </mxCell>
      </root>
    </mxGraphModel>
  </diagram>
</mxfile>
